<svg width="13" height="12" viewBox="0 0 13 12" fill="none" xmlns="http://www.w3.org/2000/svg">
<g id="Icon/Check" clip-path="url(#clip0_26_572)">
<path id="Vector" d="M11.6594 2.21553L4.74994 9.12453C4.70348 9.17117 4.64828 9.20818 4.58749 9.23343C4.52669 9.25868 4.46152 9.27168 4.39569 9.27168C4.32986 9.27168 4.26468 9.25868 4.20389 9.23343C4.1431 9.20818 4.08789 9.17117 4.04144 9.12453L1.36944 6.45003C1.32298 6.40339 1.26778 6.36639 1.20699 6.34114C1.14619 6.31589 1.08102 6.30289 1.01519 6.30289C0.949362 6.30289 0.884183 6.31589 0.823391 6.34114C0.7626 6.36639 0.707393 6.40339 0.660939 6.45003C0.6143 6.49649 0.577294 6.55169 0.552043 6.61249C0.526792 6.67328 0.513794 6.73846 0.513794 6.80428C0.513794 6.87011 0.526792 6.93529 0.552043 6.99608C0.577294 7.05687 0.6143 7.11208 0.660939 7.15853L3.33394 9.83103C3.61591 10.1125 3.99804 10.2706 4.39644 10.2706C4.79484 10.2706 5.17696 10.1125 5.45894 9.83103L12.3679 2.92353C12.4145 2.87709 12.4514 2.82191 12.4767 2.76117C12.5019 2.70042 12.5148 2.6353 12.5148 2.56953C12.5148 2.50377 12.5019 2.43864 12.4767 2.3779C12.4514 2.31715 12.4145 2.26198 12.3679 2.21553C12.3215 2.16889 12.2663 2.13189 12.2055 2.10664C12.1447 2.08139 12.0795 2.06839 12.0137 2.06839C11.9479 2.06839 11.8827 2.08139 11.8219 2.10664C11.7611 2.13189 11.7059 2.16889 11.6594 2.21553Z" fill="white"/>
</g>
<defs>
<clipPath id="clip0_26_572">
<rect width="12" height="12" fill="white" transform="translate(0.5)"/>
</clipPath>
</defs>
</svg>
