<svg width="14" height="14" viewBox="0 0 14 14" fill="none" xmlns="http://www.w3.org/2000/svg">
<g id="Icon/Lock Fill">
<path id="Vector" d="M11.0833 4.914V4.08332C11.0833 1.82818 9.25516 0 6.99998 0C4.74481 0 2.91666 1.82818 2.91666 4.08332V4.914C1.85501 5.37734 1.16819 6.42499 1.16666 7.58332V11.0833C1.16857 12.6934 2.47328 13.9981 4.0833 14H9.91663C11.5267 13.9981 12.8314 12.6934 12.8333 11.0833V7.58332C12.8318 6.42499 12.145 5.37734 11.0833 4.914ZM7.58331 9.91668C7.58331 10.2388 7.32214 10.5 6.99998 10.5C6.67782 10.5 6.41666 10.2388 6.41666 9.91668V8.75C6.41666 8.42784 6.67782 8.16668 6.99998 8.16668C7.32214 8.16668 7.58331 8.42784 7.58331 8.75V9.91668ZM9.91666 4.66668H4.0833V4.08335C4.0833 2.47253 5.38913 1.16668 6.99998 1.16668C8.61083 1.16668 9.91666 2.4725 9.91666 4.08335V4.66668Z" fill="#424242"/>
</g>
</svg>
